<?xml version="1.0" standalone="no"?>
<!DOCTYPE svg PUBLIC "-//W3C//DTD SVG 20010904//EN"
 "http://www.w3.org/TR/2001/REC-SVG-20010904/DTD/svg10.dtd">
<svg version="1.0" xmlns="http://www.w3.org/2000/svg"
 width="500.000000pt" height="500.000000pt" viewBox="0 0 500.000000 500.000000"
 preserveAspectRatio="xMidYMid meet">
<metadata>
Created by potrace 1.11, written by Peter Selinger 2001-2013
</metadata>
<g transform="translate(0.000000,500.000000) scale(0.100000,-0.100000)"
fill="#000000" stroke="none">
<path d="M2460 4833 c-222 -36 -353 -82 -510 -176 -255 -154 -447 -402 -541
-697 -18 -58 -35 -107 -36 -109 -2 -2 -29 2 -60 9 -194 43 -449 5 -643 -98
-243 -129 -433 -385 -490 -661 -27 -130 -21 -343 15 -476 38 -144 108 -290
180 -373 121 -141 237 -223 385 -272 78 -26 207 -48 261 -44 39 3 39 3 40 -34
0 -20 1 -284 1 -587 l1 -550 1444 1 c1041 0 1446 3 1451 11 4 6 7 230 6 497
-1 466 0 486 18 486 10 0 19 0 21 0 11 3 175 41 187 44 60 16 162 67 240 119
83 56 250 241 250 277 0 4 4 10 8 12 9 4 52 92 82 168 23 59 56 189 65 260 11
80 13 253 4 310 -5 30 -11 70 -14 89 -3 19 -19 75 -36 125 -107 321 -361 571
-690 680 -73 24 -183 44 -249 45 -35 1 -35 2 -58 76 -36 118 -132 307 -196
383 -104 125 -167 185 -277 264 -204 146 -427 218 -689 223 -80 1 -156 1 -170
-2z m75 -353 c19 -16 19 -60 -1 -88 -8 -12 -50 -48 -92 -79 -144 -106 -240
-220 -303 -359 -37 -82 -66 -202 -68 -285 l-1 -26 -191 0 -191 0 5 61 c3 34 8
75 11 91 6 39 54 173 74 205 65 105 94 144 156 206 120 121 239 193 419 254
110 38 155 43 182 20z"/>
<path d="M1039 448 c-4 -70 -2 -262 3 -271 5 -8 423 -11 1460 -12 799 0 1458
1 1463 2 6 2 10 58 10 146 l0 142 -1467 3 c-1171 2 -1468 0 -1469 -10z"/>
</g>
</svg>
