<?xml version="1.0" standalone="no"?>
<!DOCTYPE svg PUBLIC "-//W3C//DTD SVG 20010904//EN"
 "http://www.w3.org/TR/2001/REC-SVG-20010904/DTD/svg10.dtd">
<svg version="1.0" xmlns="http://www.w3.org/2000/svg"
 width="600.000000pt" height="600.000000pt" viewBox="0 0 600.000000 600.000000"
 preserveAspectRatio="xMidYMid meet">
<metadata>
Created by potrace 1.11, written by Peter Selinger 2001-2013
</metadata>
<g transform="translate(0.000000,600.000000) scale(0.100000,-0.100000)"
fill="#000000" stroke="none">
<path d="M5530 4175 c0 -5 5 -17 10 -25 5 -8 10 -10 10 -5 0 6 -5 17 -10 25
-5 8 -10 11 -10 5z"/>
<path d="M442 4131 c-6 -17 -9 -31 -6 -31 7 0 25 52 20 57 -2 2 -8 -10 -14
-26z"/>
<path d="M5550 4124 c0 -6 7 -19 16 -30 14 -18 14 -18 3 6 -14 31 -19 36 -19
24z"/>
<path d="M383 3983 c-215 -576 -235 -1213 -57 -1800 98 -325 290 -686 504
-948 910 -1115 2514 -1359 3715 -566 321 212 606 505 820 841 455 719 555
1622 268 2428 -29 81 -40 93 -17 17 81 -263 125 -470 142 -665 9 -109 9 -392
0 -495 -47 -539 -239 -1027 -574 -1460 -245 -318 -562 -578 -929 -765 -291
-148 -528 -223 -865 -276 -157 -25 -518 -30 -695 -10 -903 102 -1679 624
-2130 1432 -67 120 -163 348 -205 482 -57 187 -73 264 -114 542 -3 19 -9 107
-12 195 -8 204 7 401 52 660 16 90 76 300 121 418 14 38 23 70 20 73 -2 3 -22
-44 -44 -103z"/>
<path d="M1344 4011 c-9 -10 -3 -69 9 -78 6 -6 32 -13 55 -17 73 -11 107 -30
128 -72 18 -37 19 -65 19 -464 0 -234 -2 -631 -5 -882 -5 -443 -6 -457 -26
-485 -23 -31 -71 -52 -124 -53 -46 -1 -59 -10 -65 -45 -11 -59 -28 -57 470
-56 294 0 461 3 468 10 11 11 12 69 3 79 -4 3 -36 9 -73 14 -74 9 -108 27
-126 66 -8 19 -12 142 -12 427 l0 400 100 3 c128 4 157 -2 201 -40 69 -61 103
-167 164 -513 56 -315 93 -392 219 -449 147 -65 329 -63 476 8 129 61 188 142
134 180 -20 13 -25 12 -61 -14 -76 -55 -139 -46 -171 27 -10 21 -42 145 -72
276 -61 265 -87 328 -166 412 -53 56 -125 96 -234 130 l-70 22 72 22 c220 66
363 192 428 377 19 55 25 89 25 166 0 160 -42 261 -150 361 -102 95 -249 152
-451 176 -88 11 -1155 21 -1165 12z m1062 -127 c96 -49 151 -142 175 -297 16
-102 6 -295 -20 -377 -57 -181 -150 -241 -376 -244 l-120 -1 0 430 c0 396 1
433 18 463 27 50 66 63 174 59 78 -2 100 -7 149 -33z"/>
<path d="M3716 3988 c-11 -53 -5 -58 96 -78 69 -14 104 -48 113 -113 3 -23 5
-424 3 -892 -3 -836 -3 -851 -23 -885 -23 -38 -66 -59 -127 -59 -20 -1 -44 -8
-52 -17 -18 -17 -22 -69 -6 -79 13 -8 917 -8 930 0 16 10 12 62 -6 79 -8 9
-30 16 -47 16 -48 0 -102 18 -121 39 -10 11 -22 36 -26 57 -5 20 -10 422 -11
893 -2 814 -2 858 16 895 20 42 53 61 127 72 57 9 68 19 68 63 l0 36 -464 0
-464 0 -6 -27z"/>
</g>
</svg>
